# xmcd
#
# Track frame offsets: 
#        150
#        13628
#        30570
#        48639
#        63568
#        81388
#        95713
#        106382
#        119359
#        134761
#        150084
#        160423
#        186980
#        199846
#        214991
#        241218
#        258065
#        280306
#        299133
#        316491
#
# Disc length: 4419 seconds
#
# Revision: 0
# Processed by: cddbd v1.5.2PL0 Copyright (c) Steve Scherf et al.
# Submitted via: ExactAudioCopyFreeDBPlugin 1.0
#
DISCID=32114114
DTITLE=Plava Trava Zaborava - The Ultimate Collection CD-2
DYEAR=2009
DGENRE=Country
TTITLE0=Take Me Back To Tulsa
TTITLE1=Jambalaya
TTITLE2=Garden Party
TTITLE3=(Lost Her Love) On Our Last Date
TTITLE4=Lucille
TTITLE5=Dueling Banjos
TTITLE6=Will The Circle Be Unbroken
TTITLE7=Diggy Liggy
TTITLE8=Boot Scootin' Boogie
TTITLE9=Mercury Blues
TTITLE10=You Can Walk All Over Me
TTITLE11=Lyin' Eyes
TTITLE12=Uncle Pen
TTITLE13=Walking The Floor Over You
TTITLE14=Sweet Home Alabama - Walk This Way feat. Da' Real and Boytronic
TTITLE15=Always On My Mind feat. Vanna
TTITLE16=One Of Us feat. Severina
TTITLE17=Wonderful Tonight feat.AKI
TTITLE18=Detroit City feat. Oliver
TTITLE19=Take Me Home Country Roads
EXTD=
EXTT0=
EXTT1=
EXTT2=
EXTT3=
EXTT4=
EXTT5=
EXTT6=
EXTT7=
EXTT8=
EXTT9=
EXTT10=
EXTT11=
EXTT12=
EXTT13=
EXTT14=
EXTT15=
EXTT16=
EXTT17=
EXTT18=
EXTT19=
PLAYORDER=
